<svg width="63.087" height="71.582" viewBox="0 0 63.087 71.582" xmlns="http://www.w3.org/2000/svg"><g id="svgGroup" stroke-linecap="round" fill-rule="evenodd" font-size="9pt" stroke="#ffffff" stroke-width="0.25mm" fill="#ffffff" style="stroke:#ffffff;stroke-width:0.25mm;fill:#ffffff"><path d="M 13.087 60.303 L 45.802 2.686 Q 46.975 0.604 48.237 0.136 A 2.11 2.11 0 0 1 48.975 0 A 5.419 5.419 0 0 1 49.348 0.012 A 4.037 4.037 0 0 1 49.683 0.049 A 0.786 0.786 0 0 1 50.196 0.342 A 10.294 10.294 0 0 0 50.288 0.455 Q 50.416 0.61 50.489 0.684 Q 50.579 0.774 50.669 1.114 A 4.204 4.204 0 0 1 50.684 1.172 Q 50.782 1.563 50.782 1.66 A 0.553 0.553 0 0 0 50.785 1.712 Q 50.798 1.832 50.853 2.148 A 28.326 28.326 0 0 0 50.88 2.295 L 50.88 2.783 L 55.177 64.893 Q 55.274 67.188 56.275 67.773 A 3.064 3.064 0 0 0 56.908 68.039 Q 58.057 68.396 60.401 68.506 A 7.922 7.922 0 0 1 61.297 68.552 Q 62.198 68.655 62.645 68.989 A 1.047 1.047 0 0 1 63.087 69.873 A 2.069 2.069 0 0 1 62.969 70.601 Q 62.602 71.582 61.085 71.582 Q 60.596 71.582 57.496 71.436 A 127.364 127.364 0 0 0 54.267 71.326 A 159.927 159.927 0 0 0 50.782 71.289 A 201.312 201.312 0 0 0 47.7 71.313 A 244.938 244.938 0 0 0 44.41 71.387 A 1163.798 1163.798 0 0 1 43.238 71.42 Q 41.332 71.473 40.697 71.482 A 15.481 15.481 0 0 1 40.479 71.484 A 7.626 7.626 0 0 1 39.649 71.443 Q 37.989 71.26 37.989 70.264 A 1.667 1.667 0 0 1 38.338 69.243 A 2.091 2.091 0 0 1 38.38 69.189 A 0.843 0.843 0 0 1 38.703 68.923 Q 39.231 68.649 40.444 68.577 A 14.515 14.515 0 0 1 40.992 68.555 A 10.557 10.557 0 0 0 43.678 68.161 A 9.255 9.255 0 0 0 45.045 67.651 A 2.998 2.998 0 0 0 46.747 65.488 A 5.436 5.436 0 0 0 46.876 64.258 A 1.772 1.772 0 0 0 46.873 64.191 Q 46.854 63.868 46.727 62.043 A 1878.268 1878.268 0 0 0 46.68 61.377 A 863.439 863.439 0 0 0 46.52 59.138 Q 46.375 57.147 46.192 54.736 Q 45.899 50.879 45.802 48.584 L 22.999 48.584 A 2056.219 2056.219 0 0 1 21.833 50.659 A 2527.548 2527.548 0 0 1 20.582 52.881 A 244.484 244.484 0 0 1 19.968 53.963 Q 19.37 55.011 18.915 55.78 A 64.402 64.402 0 0 1 18.531 56.421 A 69.829 69.829 0 0 0 17.479 58.214 A 81.564 81.564 0 0 0 16.993 59.082 A 130.111 130.111 0 0 0 16.628 59.747 Q 16.279 60.389 16.04 60.85 A 28.235 28.235 0 0 0 15.845 61.23 Q 15.479 61.963 15.089 62.769 A 9.56 9.56 0 0 0 14.874 63.241 Q 14.668 63.733 14.6 64.087 A 5.41 5.41 0 0 0 14.504 64.965 A 4.93 4.93 0 0 0 14.503 65.088 Q 14.503 66.296 15.124 67.006 A 2.283 2.283 0 0 0 15.357 67.236 A 3.974 3.974 0 0 0 16.306 67.849 A 3.38 3.38 0 0 0 17.213 68.115 Q 18.214 68.262 19.044 68.628 A 2.194 2.194 0 0 1 19.453 68.859 Q 19.69 69.032 19.822 69.252 A 1.131 1.131 0 0 1 19.971 69.678 A 2.06 2.06 0 0 1 19.988 69.917 Q 19.988 69.924 19.988 69.932 A 1.608 1.608 0 0 1 19.581 71.021 A 1.461 1.461 0 0 1 18.984 71.424 Q 18.742 71.515 18.441 71.554 A 3.711 3.711 0 0 1 17.969 71.582 A 3.592 3.592 0 0 1 17.83 71.579 Q 17.461 71.564 16.529 71.484 Q 15.382 71.387 13.38 71.338 A 159.528 159.528 0 0 0 11.304 71.301 A 195.681 195.681 0 0 0 9.083 71.289 A 84.703 84.703 0 0 0 7.093 71.313 A 108.626 108.626 0 0 0 4.932 71.387 A 378.589 378.589 0 0 1 4.152 71.42 Q 2.595 71.484 2.198 71.484 A 5.578 5.578 0 0 1 1.451 71.439 Q 0.63 71.327 0.274 70.942 A 1.064 1.064 0 0 1 0.001 70.19 Q 0.001 68.987 0.952 68.628 A 1.962 1.962 0 0 1 1.099 68.579 Q 1.898 68.349 3.018 68.285 A 15.848 15.848 0 0 1 3.907 68.262 Q 5.408 68.262 7.588 66.773 A 18.341 18.341 0 0 0 8.204 66.333 A 13.455 13.455 0 0 0 10.249 64.418 Q 11.72 62.746 13.087 60.303 Z M 43.409 12.891 L 24.805 45.605 L 45.606 45.605 L 43.409 12.891 Z" vector-effect="non-scaling-stroke"/></g></svg>